<!--?xml version="1.0" encoding="UTF-8"?-->
<svg id="_レイヤー_2" data-name="レイヤー 2" xmlns="http://www.w3.org/2000/svg" viewBox="0 0 795.74 228.03" style="">
  <defs>
    <style>
      .cls-1 {
        fill: none;
        stroke: #fff;
        stroke-linecap: round;
        stroke-linejoin: round;
        stroke-width: 4px;
      }
    </style>
  </defs>
  <g id="mask">
    <path class="cls-1 AJAaMfnZ_0" d="M94.69,167.58c-4-1.64-22.11-2.45-40.86-12.88s-38.98-27.73-41.41-28.73C-.46,120.7.13,150.93,5.98,170.8s30.65,55.78,69.66,54.63c0,0,50.78,10.05,113.22-52.78S270.73,45.4,259.65,8.54c0,0-28.31-20-59.95,9.97s-54.33,62.83-62.64,149.07c0,0,1.45,52.49,49.06,57.85s82.94-59.56,90.15-71.51,45.27-98.34,45.27-98.34c0,0-82.73,131.9-42.47,166.59,0,0,36.42,9.04,70.15-67.08,1.02-2.3,2.02-4.57,3.01-6.8,31.53-71.55,44.24-106.76,44.24-106.76l-71.41,176.68s7.62-36.19,30.83-65.07,52.29-53.46,74.54-42.93-12.49,62.44-12.49,62.44c0,0-19.9,41.37.39,46.83s54.49-29.18,62.44-50.83,30.83-58.05,30.83-58.05c0,0-58.15,93.66-19.12,108.1s75.32-76.88,75.32-76.88l40.98-100.68s-22.74,57.71-42.13,107.71c-13.09,33.77-24.66,64.02-26.66,70.63-4.96,16.39,11.43-54.24,35.23-76.49s43.71-42.15,64-34.34,8.24,35.11-4.86,47.8-47.05,19.32-47.05,19.32c0,0-.39,45.66,33.95,45.66s83.9-81.95,89.76-110.44-50.64,81.56-23.37,106.15,81.52-81.17,94-106.54-62.48,99.9-19.14,112c23.83-1.56,31.24-22.61,31.24-22.61"></path>
    <path class="cls-1 AJAaMfnZ_1" d="M271.59,107.48L328.96,107.48"></path>
    <path class="cls-1 AJAaMfnZ_2" d="M536.28,64.44L528.37,78.49"></path>
  </g>
<style data-made-with="vivus-instant">.AJAaMfnZ_0{stroke-dasharray:3608 3610;stroke-dashoffset:3609;animation:AJAaMfnZ_draw 1960ms linear 0ms forwards;}.AJAaMfnZ_1{stroke-dasharray:58 60;stroke-dashoffset:59;animation:AJAaMfnZ_draw 1960ms linear 20ms forwards;}.AJAaMfnZ_2{stroke-dasharray:17 19;stroke-dashoffset:18;animation:AJAaMfnZ_draw 1960ms linear 40ms forwards;}@keyframes AJAaMfnZ_draw{100%{stroke-dashoffset:0;}}@keyframes AJAaMfnZ_fade{0%{stroke-opacity:1;}93.54838709677419%{stroke-opacity:1;}100%{stroke-opacity:0;}}</style></svg>