<?xml version="1.0" encoding="UTF-8"?>
<svg id="_レイヤー_2" data-name="レイヤー_2" xmlns="http://www.w3.org/2000/svg" viewBox="0 0 346.09 107.01">
  <g id="mask">
    <path d="M29.77,15.04l-5.19,8.36c-1.02,1.65,1.57,3.15,2.59,1.51l5.19-8.36c1.02-1.65-1.57-3.15-2.59-1.51h0Z"/>
    <path d="M16.08,40.5c-5.62,10.06-9.97,20.78-12.72,31.98-1.32,5.36-2.27,10.82-2.87,16.31-.43,3.88-1.3,8.88,1.34,12.24,5.23,6.66,13.78,1.36,18.63-2.67,8.74-7.26,16.47-15.6,23.32-24.66,1.16-1.54-1.44-3.04-2.59-1.51-5.13,6.79-10.79,13.13-17.02,18.92-3.02,2.81-6.21,6.02-9.78,8.12-6.06,3.57-11.68,1.27-11.28-6.19.95-17.81,6.92-35.55,15.57-51.03.94-1.69-1.65-3.2-2.59-1.51h0Z"/>
    <path d="M43.12,41.13c11.14.34,22.26,1.03,33.36,2.06,1.92.18,1.91-2.82,0-3-11.1-1.03-22.22-1.72-33.36-2.06-1.93-.06-1.93,2.94,0,3h0Z"/>
    <path d="M74.36,7.37c-8.28,13.23-14.46,27.65-21.02,41.77-3.11,6.7-6.6,13.36-9.18,20.29-2.39,6.41-2.93,13-3.13,19.78-.16,5.31-.21,11.65,4.71,15,4.39,2.99,8.86.44,12.62-2.32,11.74-8.63,22.13-18.97,31.09-30.44,1.18-1.5-.93-3.64-2.12-2.12-7.26,9.29-15.42,17.81-24.53,25.31-2.38,1.96-4.79,3.92-7.34,5.67-2.04,1.39-6.44,2.29-8.72.91-1.87-1.14-2.34-4.26-2.6-6.14-.82-6-.14-13.36,1.2-19.21,2.69-11.75,9.6-23.06,14.66-33.94,5.22-11.24,10.37-22.51,16.96-33.03,1.03-1.64-1.57-3.15-2.59-1.51h0Z"/>
    <path d="M116.02.79c-14.41,33.98-28.51,68.09-42.29,102.33l2.89.8c1.16-7.85,4.67-14.89,8.27-21.87,3.35-6.5,6.93-12.92,11.32-18.78,4.78-6.37,10.59-12.03,17.58-15.93,5.01-2.8,20.24-9.24,24.74-2.56,2.2,3.27.3,8.89-.55,12.31-.93,3.71-2.07,7.36-3.42,10.94-2.71,7.16-6.94,13.56-9.71,20.67-1.73,4.44-3.85,11.79.24,15.64,3.12,2.94,7.69,1.68,11.05-.13,6.29-3.39,11.88-9.21,16.8-14.28,5.53-5.7,10.49-11.91,14.94-18.48,1.09-1.6-1.51-3.11-2.59-1.51-4.31,6.36-9.11,12.36-14.47,17.88-4.92,5.07-11.13,12.08-17.85,14.55-.74.27-2.29.98-3.12.77-1.09-.28-3.87-4.02-4.02-4.96-.36-2.19.61-4.99,1.31-7.05,1.37-4.02,3.55-7.72,5.48-11.48,3.42-6.65,6.15-13.64,8.03-20.89,1.21-4.66,3.14-10.95.46-15.47s-8.67-4.24-13.2-3.72c-13.47,1.54-24.89,10.19-33.06,20.58-4.78,6.08-8.64,12.82-12.19,19.67-3.86,7.43-7.73,14.97-8.96,23.34-.28,1.91,2.17,2.6,2.89.8,13.69-34,27.68-67.87,41.99-101.61.75-1.76-1.84-3.29-2.59-1.51h0Z"/>
    <path d="M181.01,38.76c-5.5,10.92-9.83,22.39-12.69,34.29-2.03,8.46-5.63,20.55,1.25,27.8,6.32,6.65,15.6,2.6,21.13-2.85,8.4-8.29,15.61-18.65,21.47-28.83.96-1.68-1.63-3.19-2.59-1.51-4.74,8.24-10.35,15.88-16.48,23.14-2.74,3.25-5.62,6.89-9.43,8.94-5.51,2.95-11.75,1.56-14.09-4.57-3.16-8.26,1.1-20.13,3.48-28.32,2.67-9.18,6.23-18.03,10.53-26.56.87-1.72-1.72-3.24-2.59-1.51h0Z"/>
    <path d="M237.3,1.33c-13.43,33.71-26.85,67.42-40.28,101.14l2.89.8c4.76-18.23,11.79-36.62,26.15-49.51,6.81-6.11,18.69-14.31,28.31-11.13,7.68,2.55,6.78,10.6,3.29,16.18-2.6,4.17-6.4,7.91-10.35,10.81-3.66,2.69-7.78,4.82-12.18,5.99-3.41.91-7.67.24-10.82,1.93-5.83,3.13-.97,9.51,1.97,12.77,5.02,5.57,11.19,11.53,18.92,12.75,6.89,1.09,12.94-2.29,17.75-6.94,14.59-14.08,25.53-33.42,33.6-51.82.77-1.75-1.82-3.28-2.59-1.51-7.71,17.57-17.9,34.79-30.95,48.96-3.23,3.51-7.05,7.04-11.83,8.16-6.17,1.45-11.96-1.66-16.54-5.52-1.63-1.38-3.16-2.89-4.63-4.44-1.02-1.07-4.6-4.17-4.69-5.62l1.39-2.35c.24-1.88,1.13-2.69,2.67-2.43.56-.2,1.36-.11,1.96-.19,2.06-.25,4.09-.67,6.06-1.29,10.86-3.44,31.58-18.5,25.04-32.28-7.17-15.12-29.17-2.15-37.35,4.83-15.46,13.2-23.06,32.67-28.07,51.85-.5,1.91,2.19,2.55,2.89.8,13.43-33.71,26.85-67.42,40.28-101.14.71-1.79-2.19-2.57-2.89-.8h0Z"/>
    <path d="M295.65,39.46c-6.87,14.28-12.83,29.37-16.4,44.84-2.34,10.17-.37,23.53,12.97,22.67s19.63-16,25.87-25.88c8.06-12.76,20.42-25.25,22.56-40.75.21-1.5-1.98-2.87-2.74-1.16-4.49,10.19-8.99,20.37-13.48,30.56-3.39,7.69-8.42,16.68-5.78,25.32,1.71,5.59,6.52,10.4,12.69,9.84,7.28-.66,11.64-8.1,14.58-13.94.87-1.72-1.72-3.24-2.59-1.51-2.7,5.34-7.28,13.9-14.59,12.37-8.66-1.81-8.48-12.9-6.4-19.31,2.32-7.14,5.88-14,8.91-20.87,3.08-6.98,6.16-13.97,9.25-20.95l-2.74-1.16c-1.75,12.68-10.68,22.56-17.57,32.84-3.48,5.2-6.76,10.51-9.98,15.88-3.14,5.24-6.52,11.1-12.13,14.01-6.24,3.23-14.55,1.97-16.52-5.66-1.53-5.94.77-12.55,2.4-18.25,3.67-12.86,8.49-25.34,14.29-37.39.83-1.73-1.75-3.25-2.59-1.51h0Z"/>
    <path d="M195.2,14.42c-.86,3.48-2.06,6.82-3.67,10.03-.86,1.72,1.73,3.24,2.59,1.51,1.72-3.44,3.05-7.01,3.97-10.75.46-1.87-2.43-2.67-2.89-.8h0Z"/>
  </g>
</svg>